<svg width="80" height="80" viewBox="0 0 80 80" fill="none" xmlns="http://www.w3.org/2000/svg">
<rect width="80" height="80" rx="40" fill="#FEFEFE"/>
<path fill-rule="evenodd" clip-rule="evenodd" d="M32.3174 58.0609C33.8085 57.3637 35.0692 56.369 36.0995 55.0766L36.3604 58.5003H41.3408V13.5003H35.8916V29.997C34.9011 28.8117 33.7097 27.9027 32.3174 27.2698C30.833 26.5667 29.0947 26.2151 27.1025 26.2151C25.208 26.2151 23.4893 26.6058 21.9463 27.387C20.4229 28.1487 19.1045 29.2425 17.9912 30.6683C16.8975 32.0941 16.0479 33.803 15.4424 35.7952C15.1943 36.6306 14.9987 37.5062 14.8556 38.4221C14.6921 38.5785 14.5341 38.7419 14.3818 38.9125V36.3675H10.4365V31.2308H6.82324V36.3675H2.95605V39.1409H6.82324V52.2464C6.82324 53.6527 7.03809 54.7725 7.46777 55.6058C7.91048 56.4261 8.50293 57.012 9.24512 57.3636C9.9873 57.7152 10.8011 57.8909 11.6865 57.8909C12.3376 57.8909 12.891 57.8454 13.3467 57.7542C13.8154 57.6761 14.193 57.5915 14.4795 57.5003L14.4633 55.0586C15.2655 55.9112 16.2102 56.5884 17.2975 57.0902C18.4824 57.624 19.817 57.8909 21.3014 57.8909C21.5129 57.8909 21.7213 57.8855 21.9266 57.8747L21.9463 57.8851C23.4893 58.6859 25.1885 59.0862 27.0439 59.0862C29.0557 59.0862 30.8135 58.7444 32.3174 58.0609ZM16.7822 52.6345C17.1451 53.3033 17.5481 53.9305 17.9912 54.5159C19.0997 55.955 20.4115 57.0746 21.9266 57.8747C23.1612 57.8094 24.2809 57.5479 25.2857 57.0902C26.4706 56.5433 27.4798 55.7881 28.3131 54.8245C28.4093 54.7135 28.503 54.6003 28.594 54.485C30.2995 54.4573 31.7067 54.077 32.8154 53.3441C33.9873 52.5823 34.9248 51.5765 35.6279 50.3265C35.7184 50.1656 35.8063 50.003 35.8916 49.8386V35.3414C35.5188 34.6264 35.0696 33.9769 34.5439 33.3929C33.8604 32.5921 33.0107 31.9573 31.9951 31.4886C30.999 31.0198 29.8174 30.7855 28.4502 30.7855C26.9658 30.7855 25.6865 31.098 24.6123 31.723C23.5576 32.3284 22.6885 33.1683 22.0049 34.2425C21.6591 34.776 21.3583 35.3545 21.1024 35.978C19.6946 35.9971 18.4198 36.2702 17.2779 36.7972C16.3665 37.2078 15.5591 37.7495 14.8556 38.4221C14.6609 39.6691 14.5635 40.9907 14.5635 42.387V43.0023C14.5635 45.3069 14.8564 47.4456 15.4424 49.4183C15.4867 49.5611 15.5322 49.7026 15.5791 49.8427C15.6035 49.948 15.6294 50.0527 15.6568 50.1566C15.9042 51.081 16.2753 51.9014 16.7701 52.6175L16.7822 52.6345ZM24.7921 53.7037C25.8092 54.2257 27.0091 54.4866 28.3916 54.4866C28.4595 54.4866 28.527 54.4861 28.594 54.485C29.3034 53.5867 29.8543 52.5606 30.2467 51.4066C30.6894 50.1045 30.9107 48.6917 30.9107 47.1683V46.7191C30.9107 45.1956 30.6894 43.7829 30.2467 42.4808C29.804 41.1657 29.1594 40.0264 28.3131 39.0628C27.4798 38.0863 26.4641 37.331 25.2662 36.7972C24.0813 36.2503 22.7467 35.9769 21.2623 35.9769C21.2088 35.9769 21.1555 35.9772 21.1024 35.978C20.8525 36.587 20.6455 37.239 20.4814 37.9339C20.4012 38.2899 20.3313 38.6524 20.2716 39.0213C19.6797 39.1159 19.1375 39.299 18.6451 39.5706C17.9029 39.9873 17.2779 40.5602 16.7701 41.2894C16.2753 42.0055 15.9042 42.8324 15.6568 43.7699C15.4094 44.6943 15.2857 45.6774 15.2857 46.7191V47.1683C15.2857 48.1061 15.3835 48.9976 15.5791 49.8427C15.9137 50.8424 16.3147 51.773 16.7822 52.6345C17.2879 53.3426 17.9154 53.9034 18.6646 54.3167C19.4199 54.7204 20.2988 54.9222 21.3014 54.9222C22.291 54.9222 23.1568 54.7204 23.899 54.3167C24.2203 54.1395 24.5179 53.9352 24.7921 53.7037ZM24.7921 53.7037C24.7315 53.6727 24.6716 53.6407 24.6123 53.6077C23.5576 53.0023 22.6885 52.1722 22.0049 51.1175C21.3213 50.0628 20.8135 48.8421 20.4814 47.4554C20.1689 46.0687 20.0127 44.5843 20.0127 43.0023V42.387C20.0127 41.2112 20.099 40.0893 20.2716 39.0213C20.5877 38.9709 20.9179 38.9456 21.2623 38.9456C22.2649 38.9456 23.1373 39.154 23.8795 39.5706C24.6347 39.9873 25.2597 40.5602 25.7545 41.2894C26.2623 42.0055 26.6399 42.8324 26.8873 43.7699C27.1477 44.6943 27.2779 45.6774 27.2779 46.7191V47.1683C27.2779 48.223 27.1477 49.2191 26.8873 50.1566C26.6399 51.081 26.2688 51.9014 25.774 52.6175C25.4897 53.029 25.1624 53.3911 24.7921 53.7037ZM12.3365 42.4808C12.7673 41.2011 13.3831 40.0878 14.1838 39.1409H10.4365V52.2659C10.4365 52.9821 10.5472 53.5225 10.7686 53.887C10.9899 54.2516 11.2764 54.4925 11.6279 54.6097C11.9795 54.7269 12.3571 54.7855 12.7607 54.7855C13.0602 54.7855 13.3727 54.7594 13.6982 54.7074C13.8443 54.6793 13.9746 54.6536 14.0892 54.6304C13.3344 53.6979 12.7502 52.6233 12.3365 51.4066C11.8938 50.1045 11.6725 48.6917 11.6725 47.1683V46.7191C11.6725 45.1956 11.8938 43.7829 12.3365 42.4808ZM41.7428 43.0023V42.3284C41.7428 40.0433 42.0748 37.9241 42.7389 35.971C43.4029 33.9984 44.36 32.2894 45.61 30.8441C46.86 29.3792 48.3736 28.2464 50.151 27.4456C51.9283 26.6253 53.9205 26.2151 56.1275 26.2151C58.3541 26.2151 60.3561 26.6253 62.1334 27.4456C63.9303 28.2464 65.4537 29.3792 66.7037 30.8441C67.9732 32.2894 68.94 33.9984 69.6041 35.971C69.6146 36.002 69.6251 36.0331 69.6355 36.0642C69.1329 36.006 68.6056 35.9769 68.0537 35.9769C66.8037 35.9769 65.6709 36.1462 64.6553 36.4847C64.4896 36.5406 64.3279 36.6 64.1704 36.6627C63.8298 35.7563 63.3949 34.9301 62.8658 34.1839C62.1236 33.0901 61.1861 32.2308 60.0533 31.6058C58.94 30.9808 57.6314 30.6683 56.1275 30.6683C54.6432 30.6683 53.3346 30.9808 52.2018 31.6058C51.0885 32.2308 50.151 33.0901 49.3893 34.1839C48.6471 35.2581 48.0904 36.4984 47.7193 37.9046C47.3482 39.2913 47.1627 40.7659 47.1627 42.3284V43.0023C47.1627 44.5843 47.3482 46.0784 47.7193 47.4847C48.0904 48.8714 48.6471 50.1019 49.3893 51.1761C50.151 52.2503 51.0982 53.0999 52.2311 53.7249C53.3639 54.3304 54.6822 54.6331 56.1861 54.6331C57.6168 54.6331 58.8751 54.3519 59.961 53.7895C60.0415 53.9399 60.1283 54.0896 60.2217 54.2386C60.9118 55.3063 61.9209 56.1852 63.249 56.8753C63.3866 56.9455 63.5273 57.012 63.6712 57.0748C63.1914 57.3723 62.6886 57.6423 62.1627 57.8851C60.4049 58.6859 58.4127 59.0862 56.1861 59.0862C53.9596 59.0862 51.9576 58.6859 50.1803 57.8851C48.4029 57.0648 46.8795 55.9319 45.61 54.4866C44.36 53.0218 43.4029 51.3128 42.7389 49.3597C42.0748 47.4066 41.7428 45.2874 41.7428 43.0023ZM66.8755 54.2847C66.8189 54.3525 66.7616 54.4198 66.7037 54.4866C65.8236 55.5043 64.8127 56.367 63.6712 57.0748C64.9161 57.6189 66.3965 57.8909 68.1123 57.8909C69.4144 57.8909 70.5863 57.7347 71.6279 57.4222C72.6826 57.1097 73.5876 56.6735 74.3428 56.1136C75.098 55.5407 75.6709 54.8701 76.0615 54.1019C76.4652 53.3206 76.667 52.4613 76.667 51.5238C76.667 50.2607 76.3545 49.2191 75.7295 48.3988C75.1045 47.5654 74.206 46.8883 73.0342 46.3675C72.2759 46.0182 71.4201 45.7107 70.4667 45.445C70.5557 44.653 70.6002 43.8388 70.6002 43.0023V42.3284C70.6002 41.5743 70.564 40.8383 70.4917 40.1203C70.889 40.3899 71.1961 40.721 71.4131 41.1136C71.6995 41.5954 71.8428 42.1162 71.8428 42.6761H76.5498C76.5498 41.4131 76.2113 40.2803 75.5342 39.2777C74.8571 38.262 73.8805 37.4613 72.6045 36.8753C71.7351 36.463 70.7454 36.1927 69.6355 36.0642C70.063 37.3452 70.3484 38.6972 70.4917 40.1203C70.3883 40.0501 70.2787 39.9841 70.1631 39.9222C69.6032 39.6097 68.9001 39.4534 68.0537 39.4534C67.2464 39.4534 66.5758 39.5837 66.042 39.8441C65.6374 40.0362 65.3115 40.2755 65.064 40.5619C64.9715 39.6429 64.8052 38.7572 64.565 37.9046C64.4517 37.4751 64.3202 37.0612 64.1704 36.6627C63.3748 36.9794 62.6836 37.3823 62.0967 37.8714C61.3935 38.4574 60.8532 39.1344 60.4756 39.9027C60.098 40.6709 59.9092 41.4847 59.9092 42.3441C59.9092 43.2295 60.0915 44.0107 60.456 44.6878C60.8206 45.3649 61.3349 45.9508 61.999 46.4456C62.6631 46.9404 63.4573 47.3636 64.3818 47.7152C64.4178 47.7281 64.4539 47.7411 64.4901 47.7539C64.1565 48.907 63.6908 49.9487 63.0929 50.8792H59.206C59.206 51.8783 59.4577 52.8484 59.961 53.7895C60.0018 53.7684 60.0423 53.7468 60.0826 53.7249C61.2154 53.0999 62.1529 52.2503 62.8951 51.1761C62.9626 51.0784 63.0285 50.9795 63.0929 50.8792H63.7568C63.8089 51.7516 64.0498 52.4482 64.4795 52.9691C64.9222 53.4769 65.4691 53.848 66.1201 54.0824C66.3692 54.1654 66.621 54.2328 66.8755 54.2847ZM66.8755 54.2847C68.0608 52.8654 68.9703 51.2237 69.6041 49.3597C69.6253 49.2972 69.6463 49.2346 69.6668 49.1717C69.9271 49.2632 70.1576 49.3571 70.3584 49.4534C71.0224 49.7659 71.4717 50.1175 71.706 50.5081C71.9404 50.8857 72.0576 51.3089 72.0576 51.7777C72.0576 52.2855 71.9079 52.7412 71.6084 53.1449C71.3089 53.5355 70.8727 53.848 70.2998 54.0824C69.7269 54.3037 69.0172 54.4144 68.1709 54.4144C67.7315 54.4144 67.2997 54.3712 66.8755 54.2847ZM69.6668 49.1717C70.0538 47.9896 70.3204 46.7474 70.4667 45.445C69.963 45.3046 69.4321 45.1759 68.874 45.0589C68.0146 44.8766 67.2985 44.6878 66.7256 44.4925C66.1657 44.2972 65.723 44.0889 65.3974 43.8675C65.304 43.8002 65.218 43.7313 65.1395 43.6607C65.1472 43.443 65.151 43.2235 65.151 43.0023V42.3284C65.151 41.7266 65.122 41.1377 65.064 40.5619C64.9929 40.6443 64.9283 40.7305 64.8701 40.8206C64.6227 41.2243 64.499 41.667 64.499 42.1488C64.499 42.5003 64.5641 42.8193 64.6943 43.1058C64.7964 43.3007 64.9448 43.4857 65.1395 43.6607C65.0925 45.0004 64.901 46.2751 64.565 47.4847C64.5408 47.5751 64.5159 47.6648 64.4901 47.7539C65.3984 48.0761 66.3909 48.3562 67.4678 48.5941C68.3502 48.7742 69.0833 48.9667 69.6668 49.1717Z" fill="#E49D99"/>
</svg>
